/vscmnt/brussel_pixiu_data/_data_brussel/112/vsc11236/PredSimResults/SUBJ10opt3D/trackIG/worker_08.mot
version=1
nRows=7
nColumns=50
inDegrees=yes
endheader
                time	         pelvis_tilt	         pelvis_list	     pelvis_rotation	           pelvis_tx	           pelvis_ty	           pelvis_tz	       hip_flexion_r	     hip_adduction_r	      hip_rotation_r	        knee_angle_r	       ankle_angle_r	         mtp_angle_r	       hip_flexion_l	     hip_adduction_l	      hip_rotation_l	        knee_angle_l	       ankle_angle_l	         mtp_angle_l	    lumbar_extension	      lumbar_bending	     lumbar_rotation	 ercspn_r/activation	 intobl_r/activation	 extobl_r/activation	    abd_r/activation	    add_r/activation	hamstrings_r/activation	bifemsh_r/activation	glut_max_r/activation	iliopsoas_r/activation	rect_fem_r/activation	  vasti_r/activation	gastroc_r/activation	 soleus_r/activation	tib_ant_r/activation	 ercspn_l/activation	 intobl_l/activation	 extobl_l/activation	    abd_l/activation	    add_l/activation	hamstrings_l/activation	bifemsh_l/activation	glut_max_l/activation	iliopsoas_l/activation	rect_fem_l/activation	  vasti_l/activation	gastroc_l/activation	 soleus_l/activation	tib_ant_l/activation	
          1.07553616	         -4.95090876	         -1.14704950	          7.72193061	          1.39819701	          0.81818947	         -0.01151958	         32.31666953	         -1.33140849	         -6.22143170	         -8.38335843	          3.39443589	          0.27056554	        -16.72570830	         -1.06529907	         -0.06327633	         -7.62197673	          5.97771768	         30.20035690	         -6.69365121	          0.18080540	         -6.95047152	          0.10758364	          0.14042718	          0.01000015	          0.01000000	          0.19499424	          0.11473209	          0.24645822	          0.07346693	          0.08715444	          0.01000017	          0.01000001	          0.01933912	          0.01288840	          0.32106970	          0.11676638	          0.01000002	          0.01000006	          0.04106912	          0.01000104	          0.01999100	          0.20264115	          0.01318116	          0.33454249	          0.01000025	          0.01000006	          0.27023241	          0.23849265	          0.02113257	
          1.08629152	         -4.97137156	         -1.13607680	          7.78810173	          1.41468862	          0.81695330	         -0.01141615	         32.02128105	         -1.20912488	         -5.92286480	         -9.84213151	          2.99957653	          0.25817522	        -16.61528133	         -1.20268015	         -0.38908816	         -9.77224998	          5.06152269	         31.80504172	         -6.48799730	          0.63412093	         -7.20381978	          0.09167077	          0.11908119	          0.01000008	          0.03931894	          0.16535367	          0.10202374	          0.20899479	          0.11108659	          0.07390630	          0.01000004	          0.01000001	          0.01639944	          0.01092928	          0.41617566	          0.13560322	          0.01000001	          0.01000006	          0.03482630	          0.01179293	          0.01696825	          0.17183815	          0.01117756	          0.28368949	          0.01000013	          0.01000003	          0.22915501	          0.22130780	          0.01792025	
          1.09704689	         -4.98283850	         -1.12721834	          7.80994805	          1.43128074	          0.81599000	         -0.01118117	         31.62783808	         -1.08161025	         -5.68315873	        -11.10697051	          2.44097143	          0.24701983	        -16.30806190	         -1.35266584	         -0.74464884	        -12.27467529	          4.03256472	         33.18411916	         -6.28389924	          1.08259371	         -7.42500655	          0.11480290	          0.10097994	          0.01000008	          0.09604079	          0.18006394	          0.08651538	          0.17722602	          0.13337544	          0.06267197	          0.01000006	          0.01000002	          0.01390660	          0.01000001	          0.48091261	          0.15553809	          0.01000001	          0.01000005	          0.02953243	          0.01000046	          0.01441170	          0.14571745	          0.01000005	          0.24056656	          0.01000017	          0.01000003	          0.19432168	          0.20254787	          0.01519624	
          1.10780225	         -4.98498224	         -1.11539464	          7.79018964	          1.44778199	          0.81542924	         -0.01082991	         31.25493583	         -0.95026774	         -5.50819503	        -12.41605537	          1.93250389	          0.23035003	        -15.74686375	         -1.51203331	         -1.13318016	        -15.19502348	          2.89449446	         34.17653261	         -6.10086499	          1.52230613	         -7.61008623	          0.12141115	          0.08563021	          0.01000008	          0.13602765	          0.23566253	          0.07336468	          0.15028633	          0.14944227	          0.05314535	          0.01000008	          0.01196105	          0.01179271	          0.01000008	          0.50624728	          0.19316864	          0.01000001	          0.01000005	          0.02504328	          0.02213313	          0.02199064	          0.12356730	          0.01000005	          0.20399863	          0.01000010	          0.01000002	          0.16478329	          0.17175912	          0.01288630	
          1.11855761	         -4.97826326	         -1.10195282	          7.73295348	          1.46408109	          0.81537447	         -0.01038056	         30.94420888	         -0.81847439	         -5.38823192	        -13.85727966	          1.62875346	          0.21271070	        -14.89052494	         -1.68624105	         -1.56701920	        -18.57819253	          1.66689773	         34.56481961	         -5.94452837	          1.95339876	         -7.75959909	          0.12286915	          0.07261376	          0.01000007	          0.16145795	          0.26657157	          0.06750853	          0.12744168	          0.15213063	          0.04506685	          0.01000007	          0.05388313	          0.01000017	          0.01000005	          0.51300275	          0.21884965	          0.01000002	          0.01000005	          0.02123651	          0.10134099	          0.01865862	          0.10478414	          0.01000002	          0.17298929	          0.01000009	          0.01000001	          0.13973496	          0.14565041	          0.01092749	
          1.12931297	         -4.96517242	         -1.08137816	          7.63713793	          1.48010863	          0.81593854	         -0.00986156	         30.62272306	         -0.68653823	         -5.30903988	        -15.29199539	          1.57542649	          0.19375559	        -13.70831803	         -1.87379782	         -2.05988807	        -22.42578455	          0.24842961	         34.27709036	         -5.81657364	          2.36966300	         -7.87116209	          0.11723352	          0.06157591	          0.01000007	          0.17279711	          0.28239805	          0.06474766	          0.10806961	          0.14396551	          0.03821635	          0.01000007	          0.09009288	          0.01000007	          0.01000004	          0.49642495	          0.22767274	          0.01000002	          0.01000005	          0.01800839	          0.17819924	          0.02015887	          0.08885619	          0.01000001	          0.14669360	          0.01000008	          0.01000001	          0.11849416	          0.12351043	          0.01000001	
          1.14006833	         -4.94855717	         -1.04866057	          7.50211469	          1.49582124	          0.81715270	         -0.00930069	         30.21223758	         -0.55030338	         -5.23850786	        -16.57885908	          1.80686302	          0.18230383	        -12.19892525	         -2.07776724	         -2.61034138	        -26.66444244	         -1.50970583	         33.32564516	         -5.71808952	          2.76661043	         -7.94304201	          0.10507336	          0.05221590	          0.01000007	          0.17843102	          0.28470262	          0.06636567	          0.09164224	          0.12646537	          0.03240717	          0.01000006	          0.11810053	          0.01000003	          0.01000001	          0.44532600	          0.22795933	          0.01000001	          0.01000005	          0.01527098	          0.24080213	          0.01783032	          0.07534943	          0.01000000	          0.12439506	          0.01000007	          0.01000000	          0.10048214	          0.10473589	          0.01000000	
